<?xml version="1.0" encoding="utf-8"?>
<!-- Generator: Adobe Illustrator 24.0.0, SVG Export Plug-In . SVG Version: 6.00 Build 0)  -->
<svg version="1.1" id="Layer_1" xmlns="http://www.w3.org/2000/svg" xmlns:xlink="http://www.w3.org/1999/xlink" x="0px" y="0px"
	 viewBox="0 0 800 600" style="enable-background:new 0 0 800 600;" xml:space="preserve">
<style type="text/css">
	.st0{fill-rule:evenodd;clip-rule:evenodd;fill:#00509F;}
	.st1{fill-rule:evenodd;clip-rule:evenodd;fill:#FFFFFF;}
</style>
<g>
	<path class="st0" d="M400.5,43.1c141.1,0,256.1,115.1,256.1,256.4c0,140.9-115.1,256.1-256.1,256.1
		c-141.1,0-256.4-115.3-256.4-256.1C144.1,158.2,259.4,43.1,400.5,43.1L400.5,43.1z"/>
	<path class="st1" d="M400.5,75.7c123,0,223.6,100.6,223.6,223.8c0,123-100.6,223.4-223.6,223.4c-123,0-223.6-100.4-223.6-223.4
		C176.9,176.2,277.4,75.7,400.5,75.7L400.5,75.7z M250.8,179.2L331,387.2l29.4-76h22.7h31.7h22.7l29.4,76l81-210.6
		c-14.3-17.2-31.5-31.9-50.8-43.2l-56.3,154.9h-25h-29.4h-25L305,132.8C284.2,144.7,265.9,160.5,250.8,179.2L250.8,179.2z
		 M580.2,231.5l-91.3,238.3c61.3-32.1,103.5-96.4,103.5-170.3C592.4,275.5,588.2,252.7,580.2,231.5L580.2,231.5z M449,485.3
		l-0.6-4.8L398.8,352l-49.6,128.5l-0.2,4c16.4,4.6,33.6,6.9,51.4,6.9C417.3,491.4,433.4,489.3,449,485.3L449,485.3z M308.3,467.7
		l-89-232c-7.1,19.9-10.9,41.4-10.9,63.8C208.4,371.7,248.7,435.1,308.3,467.7L308.3,467.7z M400.5,107.4c16.8,0,33.4,2.1,49.1,6.3
		l-48.5,134.2l-48.7-134.4C367.7,109.5,383.9,107.4,400.5,107.4L400.5,107.4z"/>
</g>
</svg>
